<mxfile host="65bd71144e">
    <diagram id="8Y0mKFb3bDU1taDflgSp" name="Page-1">
        <mxGraphModel dx="1444" dy="713" grid="1" gridSize="10" guides="1" tooltips="1" connect="1" arrows="1" fold="1" page="1" pageScale="1" pageWidth="850" pageHeight="1100" math="0" shadow="0">
            <root>
                <mxCell id="0"/>
                <mxCell id="1" parent="0"/>
                <mxCell id="uKicYJxmrlBUjgvzpvbp-46" value="" style="rounded=0;whiteSpace=wrap;html=1;" parent="1" vertex="1">
                    <mxGeometry x="150" y="590" width="490" height="470" as="geometry"/>
                </mxCell>
                <mxCell id="uKicYJxmrlBUjgvzpvbp-47" value="Video Page" style="rounded=0;whiteSpace=wrap;html=1;" parent="1" vertex="1">
                    <mxGeometry x="325" y="560" width="110" height="20" as="geometry"/>
                </mxCell>
                <mxCell id="uKicYJxmrlBUjgvzpvbp-49" value="Home" style="rounded=0;whiteSpace=wrap;html=1;" parent="1" vertex="1">
                    <mxGeometry x="160" y="600" width="70" height="20" as="geometry"/>
                </mxCell>
                <mxCell id="uKicYJxmrlBUjgvzpvbp-50" value="Search" style="rounded=0;whiteSpace=wrap;html=1;" parent="1" vertex="1">
                    <mxGeometry x="240" y="600" width="250" height="20" as="geometry"/>
                </mxCell>
                <mxCell id="uKicYJxmrlBUjgvzpvbp-51" value="" style="rounded=0;whiteSpace=wrap;html=1;" parent="1" vertex="1">
                    <mxGeometry x="500" y="600" width="20" height="20" as="geometry"/>
                </mxCell>
                <mxCell id="uKicYJxmrlBUjgvzpvbp-52" value="" style="shape=image;html=1;verticalAlign=top;verticalLabelPosition=bottom;labelBackgroundColor=#ffffff;imageAspect=0;aspect=fixed;image=https://cdn4.iconfinder.com/data/icons/essential-app-2/16/search-find-magnify-glass-128.png" parent="1" vertex="1">
                    <mxGeometry x="500" y="600" width="20" height="20" as="geometry"/>
                </mxCell>
                <mxCell id="uKicYJxmrlBUjgvzpvbp-53" value="Profile" style="rounded=0;whiteSpace=wrap;html=1;" parent="1" vertex="1">
                    <mxGeometry x="550" y="600" width="60" height="20" as="geometry"/>
                </mxCell>
                <mxCell id="uKicYJxmrlBUjgvzpvbp-54" value="Video Title" style="rounded=0;whiteSpace=wrap;html=1;" parent="1" vertex="1">
                    <mxGeometry x="160" y="640" width="330" height="20" as="geometry"/>
                </mxCell>
                <mxCell id="uKicYJxmrlBUjgvzpvbp-55" value="Author" style="rounded=0;whiteSpace=wrap;html=1;" parent="1" vertex="1">
                    <mxGeometry x="160" y="670" width="330" height="20" as="geometry"/>
                </mxCell>
                <mxCell id="uKicYJxmrlBUjgvzpvbp-56" value="Video" style="rounded=0;whiteSpace=wrap;html=1;" parent="1" vertex="1">
                    <mxGeometry x="160" y="700" width="330" height="230" as="geometry"/>
                </mxCell>
                <mxCell id="uKicYJxmrlBUjgvzpvbp-57" value="Video Suggested" style="rounded=0;whiteSpace=wrap;html=1;" parent="1" vertex="1">
                    <mxGeometry x="510" y="640" width="120" height="60" as="geometry"/>
                </mxCell>
                <mxCell id="uKicYJxmrlBUjgvzpvbp-58" value="Video Suggested" style="rounded=0;whiteSpace=wrap;html=1;" parent="1" vertex="1">
                    <mxGeometry x="510" y="720" width="120" height="60" as="geometry"/>
                </mxCell>
                <mxCell id="uKicYJxmrlBUjgvzpvbp-59" value="Video Suggested" style="rounded=0;whiteSpace=wrap;html=1;" parent="1" vertex="1">
                    <mxGeometry x="510" y="800" width="120" height="60" as="geometry"/>
                </mxCell>
                <mxCell id="uKicYJxmrlBUjgvzpvbp-60" value="Video Suggested" style="rounded=0;whiteSpace=wrap;html=1;" parent="1" vertex="1">
                    <mxGeometry x="510" y="880" width="120" height="60" as="geometry"/>
                </mxCell>
                <mxCell id="uKicYJxmrlBUjgvzpvbp-61" value="Video Suggested" style="rounded=0;whiteSpace=wrap;html=1;" parent="1" vertex="1">
                    <mxGeometry x="510" y="960" width="120" height="60" as="geometry"/>
                </mxCell>
                <mxCell id="uKicYJxmrlBUjgvzpvbp-62" value="Comment" style="rounded=0;whiteSpace=wrap;html=1;" parent="1" vertex="1">
                    <mxGeometry x="210" y="940" width="270" height="20" as="geometry"/>
                </mxCell>
                <mxCell id="uKicYJxmrlBUjgvzpvbp-64" value="" style="shape=mxgraph.arrows.arrow_down;html=1;verticalLabelPosition=bottom;verticalAlign=top;strokeWidth=2;strokeColor=#000000;" parent="1" vertex="1">
                    <mxGeometry x="190" y="940" width="10" height="20" as="geometry"/>
                </mxCell>
                <mxCell id="uKicYJxmrlBUjgvzpvbp-66" value="" style="shape=mxgraph.arrows.arrow_up;html=1;verticalLabelPosition=bottom;verticalAlign=top;strokeWidth=2;strokeColor=#000000;" parent="1" vertex="1">
                    <mxGeometry x="160" y="940" width="10" height="20" as="geometry"/>
                </mxCell>
                <mxCell id="uKicYJxmrlBUjgvzpvbp-67" value="Comment" style="rounded=0;whiteSpace=wrap;html=1;" parent="1" vertex="1">
                    <mxGeometry x="210" y="970" width="270" height="20" as="geometry"/>
                </mxCell>
                <mxCell id="uKicYJxmrlBUjgvzpvbp-69" value="Comment" style="rounded=0;whiteSpace=wrap;html=1;" parent="1" vertex="1">
                    <mxGeometry x="210" y="1000" width="270" height="20" as="geometry"/>
                </mxCell>
                <mxCell id="uKicYJxmrlBUjgvzpvbp-70" value="Comment" style="rounded=0;whiteSpace=wrap;html=1;" parent="1" vertex="1">
                    <mxGeometry x="210" y="1030" width="270" height="20" as="geometry"/>
                </mxCell>
                <mxCell id="uKicYJxmrlBUjgvzpvbp-71" value="" style="shape=mxgraph.arrows.arrow_down;html=1;verticalLabelPosition=bottom;verticalAlign=top;strokeWidth=2;strokeColor=#000000;" parent="1" vertex="1">
                    <mxGeometry x="190" y="970" width="10" height="20" as="geometry"/>
                </mxCell>
                <mxCell id="uKicYJxmrlBUjgvzpvbp-72" value="" style="shape=mxgraph.arrows.arrow_down;html=1;verticalLabelPosition=bottom;verticalAlign=top;strokeWidth=2;strokeColor=#000000;" parent="1" vertex="1">
                    <mxGeometry x="190" y="1000" width="10" height="20" as="geometry"/>
                </mxCell>
                <mxCell id="uKicYJxmrlBUjgvzpvbp-73" value="" style="shape=mxgraph.arrows.arrow_down;html=1;verticalLabelPosition=bottom;verticalAlign=top;strokeWidth=2;strokeColor=#000000;" parent="1" vertex="1">
                    <mxGeometry x="190" y="1030" width="10" height="20" as="geometry"/>
                </mxCell>
                <mxCell id="uKicYJxmrlBUjgvzpvbp-74" value="" style="shape=mxgraph.arrows.arrow_up;html=1;verticalLabelPosition=bottom;verticalAlign=top;strokeWidth=2;strokeColor=#000000;" parent="1" vertex="1">
                    <mxGeometry x="160" y="970" width="10" height="20" as="geometry"/>
                </mxCell>
                <mxCell id="uKicYJxmrlBUjgvzpvbp-75" value="" style="shape=mxgraph.arrows.arrow_up;html=1;verticalLabelPosition=bottom;verticalAlign=top;strokeWidth=2;strokeColor=#000000;" parent="1" vertex="1">
                    <mxGeometry x="160" y="1000" width="10" height="20" as="geometry"/>
                </mxCell>
                <mxCell id="uKicYJxmrlBUjgvzpvbp-76" value="" style="shape=mxgraph.arrows.arrow_up;html=1;verticalLabelPosition=bottom;verticalAlign=top;strokeWidth=2;strokeColor=#000000;" parent="1" vertex="1">
                    <mxGeometry x="160" y="1030" width="10" height="20" as="geometry"/>
                </mxCell>
            </root>
        </mxGraphModel>
    </diagram>
</mxfile>